<?xml version="1.0" encoding="utf-8"?>
<!-- Generator: Adobe Illustrator 24.0.0, SVG Export Plug-In . SVG Version: 6.00 Build 0)  -->
<svg version="1.1" id="logo" xmlns="http://www.w3.org/2000/svg" xmlns:xlink="http://www.w3.org/1999/xlink" x="0px" y="0px"
	 viewBox="0 0 2125.8 412.9" style="enable-background:new 0 0 2125.8 412.9;" xml:space="preserve">
<style type="text/css">
	.st0{fill:#FFFFFF;}
</style>
<path id="black" class="st0" d="M482.4,181.6L313.9,13.1c-15.9-15.9-41.8-15.9-57.7,0L163,106.3L69.7,13.1C58,1.4,40.5-2.1,25.2,4.2
	C9.9,10.6,0,25.5,0,42v266.2c11.8-7.6,25.8-12,40.8-12s29,4.4,40.8,12V140.6L134,193c13.8,13.8,35.4,15.9,51.6,5.1
	c2.4-1.6,4.6-3.5,6.6-5.5c5.2-5.2,58.5-58.5,92.8-92.8l110.8,110.8L263,343.2c-15.9,15.9-15.9,41.8,0,57.7c8,8,18.4,12,28.9,12
	s20.9-4,28.9-12l161.6-161.6C498.3,223.4,498.3,197.5,482.4,181.6z"/>
<path id="red" class="st0" d="M40.8,331.2C18.3,331.2,0,349.5,0,372.1c0,19.7,14,36.2,32.6,40c1.3,0.3,2.7,0.5,4.1,0.6
	c1.4,0.1,2.8,0.2,4.2,0.2s2.8-0.1,4.2-0.2s2.7-0.3,4.1-0.6c18.6-3.8,32.6-20.3,32.6-40C81.7,349.5,63.4,331.2,40.8,331.2z"/>
<path class="st0" d="M676.2,132.8c-22.5,0-40.8,18.2-40.8,40.8s18.2,40.8,40.8,40.8c32.3,0,58.6,26.3,58.6,58.6
	s-26.3,58.6-58.6,58.6s-58.6-26.3-58.6-58.6c0-0.7,0-1.4-0.1-2.1L617.6,41c0-22.5-18.3-40.8-40.8-40.8c-11.3,0-21.5,4.5-28.9,12
	S536,29.8,536,41.1v232l0,0l0,0c0,77.2,62.8,140.1,140.1,140.1s140.1-62.8,140.1-140.1S753.4,132.8,676.2,132.8z"/>
<path class="st0" d="M1268.7,132.8c22.5,0,40.8,18.2,40.8,40.8s-18.2,40.8-40.8,40.8c-32.3,0-58.6,26.3-58.6,58.6
	s26.3,58.6,58.6,58.6s58.6-26.3,58.6-58.6c0-0.7,0-1.4,0.1-2.1L1327.3,41c0-22.5,18.3-40.8,40.8-40.8c11.3,0,21.5,4.5,28.9,12
	c7.4,7.4,11.9,17.6,11.9,28.9v232l0,0l0,0c0,77.2-62.8,140.1-140.1,140.1s-140.1-62.8-140.1-140.1S1191.5,132.8,1268.7,132.8z"/>
<path class="st0" d="M1564.7,132.8c22.5,0,40.8,18.2,40.8,40.8s-18.2,40.8-40.8,40.8c-32.3,0-58.6,26.3-58.6,58.6
	s26.3,58.6,58.6,58.6s58.6-26.3,58.6-58.6c0-0.7,0-1.4,0.1-2.1L1623.3,41c0-22.5,18.3-40.8,40.8-40.8c11.3,0,21.5,4.5,28.9,12
	c7.4,7.4,11.9,17.6,11.9,28.9v232l0,0l0,0c0,77.2-62.8,140.1-140.1,140.1s-140.1-62.8-140.1-140.1S1487.5,132.8,1564.7,132.8z"/>
<g>
	<path class="st0" d="M972.4,412.5c-77.3,0-140.2-62.9-140.2-140.2v-93c0-22.5,18.2-40.8,40.8-40.8s40.8,18.2,40.8,40.8v93
		c0,32.4,26.3,58.7,58.7,58.7s58.7-26.3,58.7-58.7v-93c0-22.5,18.2-40.8,40.8-40.8s40.8,18.2,40.8,40.8v93
		C1112.7,349.6,1049.8,412.5,972.4,412.5z"/>
</g>
<path class="st0" d="M2113.8,11.9c-1.2-1.2-2.4-2.3-3.7-3.3c-16-12.5-39.2-11.4-54,3.3l-21.9,21.9l-0.3,0.1l-110.6,110.6
	L1812.7,33.9l-0.3-0.1l-21.9-21.9c-14.7-14.7-38-15.8-54-3.3c-1.3,1-2.6,2.1-3.7,3.3c-8,8-12,18.4-12,28.9c0,9.8,3.5,19.4,10.4,27.2
	c0.5,0.6,1.1,1.2,1.6,1.7l149.8,149.8v152.7c0,22.5,18.2,40.8,40.8,40.8s40.8-18.2,40.8-40.8V219.5l149.7-149.7
	c0.6-0.6,1.1-1.1,1.6-1.7c6.9-7.7,10.4-17.4,10.4-27.2C2125.8,30.3,2121.8,19.9,2113.8,11.9z"/>
</svg>
