<svg id="logo" xmlns="http://www.w3.org/2000/svg" viewBox="0 0 2125.9 413.22"><defs><style>.cls-1{fill:#007bff;}</style></defs><title>logo--blue</title><path id="black" class="cls-1" d="M482.4,181.6,313.9,13.1a40.86,40.86,0,0,0-57.7,0L163,106.3,69.7,13.1A40.8,40.8,0,0,0,0,42V308.2a75.36,75.36,0,0,1,81.6,0V140.6L134,193a40.89,40.89,0,0,0,51.6,5.1,43.78,43.78,0,0,0,6.6-5.5L285,99.8,395.8,210.6,263,343.2a40.84,40.84,0,1,0,57.8,57.7L482.4,239.3A40.86,40.86,0,0,0,482.4,181.6Z" transform="translate(0 0.02)"/><path id="red" class="cls-1" d="M40.8,331.2a40.87,40.87,0,0,0-8.2,80.9,27,27,0,0,0,4.1.6c1.4.1,2.8.2,4.2.2s2.8-.1,4.2-.2a29,29,0,0,0,4.1-.6,40.87,40.87,0,0,0-8.4-80.9Z" transform="translate(0 0.02)"/><path class="cls-1" d="M676.2,132.8a40.8,40.8,0,0,0,0,81.6A58.6,58.6,0,1,1,617.6,273a14.77,14.77,0,0,0-.1-2.1L617.6,41A40.84,40.84,0,0,0,576.8.2a40.32,40.32,0,0,0-28.9,12A40.82,40.82,0,0,0,536,41.1v232h0c0,77.2,62.8,140.1,140.1,140.1A140.2,140.2,0,0,0,816.2,273.1C816.2,195.8,753.4,132.8,676.2,132.8Z" transform="translate(0 0.02)"/><path class="cls-1" d="M1268.7,132.8a40.8,40.8,0,0,1,0,81.6,58.6,58.6,0,1,0,58.6,58.6,14.77,14.77,0,0,1,.1-2.1L1327.3,41A40.84,40.84,0,0,1,1368.1.2a40.32,40.32,0,0,1,28.9,12,40.65,40.65,0,0,1,11.9,28.9v232h0c0,77.2-62.8,140.1-140.1,140.1a140.2,140.2,0,0,1-140.1-140.1C1128.7,195.8,1191.5,132.8,1268.7,132.8Z" transform="translate(0 0.02)"/><path class="cls-1" d="M1564.7,132.8a40.8,40.8,0,0,1,0,81.6,58.6,58.6,0,1,0,58.6,58.6,14.77,14.77,0,0,1,.1-2.1L1623.3,41A40.84,40.84,0,0,1,1664.1.2a40.32,40.32,0,0,1,28.9,12,40.65,40.65,0,0,1,11.9,28.9v232h0c0,77.2-62.8,140.1-140.1,140.1a140.2,140.2,0,0,1-140.1-140.1C1424.7,195.8,1487.5,132.8,1564.7,132.8Z" transform="translate(0 0.02)"/><path class="cls-1" d="M972.4,412.5c-77.3,0-140.2-62.9-140.2-140.2v-93a40.8,40.8,0,0,1,81.6,0v93a58.7,58.7,0,0,0,117.4,0v-93a40.8,40.8,0,0,1,81.6,0v93C1112.7,349.6,1049.8,412.5,972.4,412.5Z" transform="translate(0 0.02)"/><path class="cls-1" d="M2113.8,11.9a38,38,0,0,0-3.7-3.3,40.94,40.94,0,0,0-54,3.3l-21.9,21.9-.3.1L1923.3,144.5,1812.7,33.9l-.3-.1-21.9-21.9a40.94,40.94,0,0,0-54-3.3,29.07,29.07,0,0,0-3.7,3.3,40.79,40.79,0,0,0-1.6,56.1c.5.6,1.1,1.2,1.6,1.7l149.8,149.8V372.2a40.8,40.8,0,1,0,81.6,0V219.5L2113.9,69.8c.6-.6,1.1-1.1,1.6-1.7a40.63,40.63,0,0,0,10.4-27.2A41.24,41.24,0,0,0,2113.8,11.9Z" transform="translate(0 0.02)"/></svg>